# xmcd CD database file
#
# Track frame offsets:
#	150
#	49645
#	71583
#	108373
#	145704
#	179847
#	216523
#
# Disc length: 3103 seconds
#
# Revision: 0
# Processed by: cddbd v1.5.1PL2 Copyright (c) Steve Scherf et al.
# Submitted via: CDex 1.51
#
DISCID=6b0c1d07
DTITLE=Jens Winther European Quintet - Concord
DYEAR=2005
DGENRE=Jazz
TTITLE0=Concord
TTITLE1=Ubatuba
TTITLE2=August
TTITLE3=Supreme Love
TTITLE4=Abstract Colours
TTITLE5=Honesty 8:05
TTITLE6=Peculiar Walk
EXTD=YEAR: 2005
EXTT0=
EXTT1=
EXTT2=
EXTT3=
EXTT4=
EXTT5=
EXTT6=
PLAYORDER=
